<svg version="1" xmlns="http://www.w3.org/2000/svg" width="1441.333" height="1441.333" viewBox="0 0 1081.000000 1081.000000"><path d="M259 173.7c-5.6.2-13.3 1.1-24.5 2.9-22 3.5-52.1 16.7-72 31.5-28.6 21.4-49.5 49.2-61.5 82-2.6 7.3-6.6 21.6-7.5 27.2-.2 1.2-1 5.8-1.7 10.2-1 6.4-1.3 45.3-1.3 197.5 0 104.2.3 193.3.8 197.9 1.9 20.8 8.2 42.3 18.3 62.1 5.9 11.6 6.8 12.9 16 25.5 12.7 17.2 30.5 33.8 48.1 44.6 13.2 8.1 37 18.7 45.5 20.3 1.3.2 4.3.9 6.8 1.6 2.5.7 5.9 1.4 7.5 1.7 1.7.2 4.1.6 5.5.9 1.4.2 5 .8 8 1.2 7.1.9 579.8.9 586.5 0 2.8-.4 7-1 9.5-1.3 6.1-.8 22-5 30.5-8.2 24.2-8.9 45.3-22.3 64-40.8 8.5-8.4 20.9-23.4 23.8-28.7.7-1.2 2.4-4.1 3.8-6.3 12.6-19.5 22.8-51.6 24.5-77.3.7-10.9.7-372.1 0-381.1-.8-9-1.3-12.6-3.2-21.6-.8-3.9-1.7-8.1-2-9.5-1.1-5.4-7.9-23.9-11.8-32-22.6-46.8-64-81.1-113.7-94.3-5.2-1.4-11.2-2.8-13.4-3.1-2.2-.4-7.1-1.2-11-1.8-5-.8-85.5-1.1-288-1.2-154.5-.1-283.9 0-287.5.1z"/></svg>