<?xml version="1.0" encoding="UTF-8" standalone="no"?><!DOCTYPE svg PUBLIC "-//W3C//DTD SVG 1.1//EN" "http://www.w3.org/Graphics/SVG/1.1/DTD/svg11.dtd"><svg width="16" height="16" viewBox="0 0 16 16" version="1.1" xmlns="http://www.w3.org/2000/svg" xmlns:xlink="http://www.w3.org/1999/xlink" xml:space="preserve" xmlns:serif="http://www.serif.com/" style="fill-rule:evenodd;clip-rule:evenodd;stroke-linejoin:round;stroke-miterlimit:2;"><g><g><path d="M16,2.342c0,-1.293 -1.049,-2.342 -2.342,-2.342l-11.316,0c-1.293,0 -2.342,1.049 -2.342,2.342c0,0.915 0.743,1.658 1.658,1.658l12.684,0c0.915,0 1.658,-0.743 1.658,-1.658Z"/><path d="M-0,13.658c-0,1.293 1.049,2.342 2.342,2.342l11.316,-0c1.293,-0 2.342,-1.049 2.342,-2.342c-0,-0.915 -0.743,-1.658 -1.658,-1.658l-12.684,-0c-0.915,-0 -1.658,0.743 -1.658,1.658Z"/><path d="M16,7.659c0,-0.916 -0.743,-1.659 -1.659,-1.659l-12.682,0c-0.916,0 -1.659,0.743 -1.659,1.659l0,0.682c0,0.916 0.743,1.659 1.659,1.659l12.682,0c0.916,0 1.659,-0.743 1.659,-1.659l0,-0.682Z"/></g></g></svg>