<?xml version="1.0" encoding="UTF-8" standalone="no"?><!DOCTYPE svg PUBLIC "-//W3C//DTD SVG 1.1//EN" "http://www.w3.org/Graphics/SVG/1.1/DTD/svg11.dtd"><svg width="16" height="16" viewBox="0 0 16 16" version="1.1" xmlns="http://www.w3.org/2000/svg" xmlns:xlink="http://www.w3.org/1999/xlink" xml:space="preserve" xmlns:serif="http://www.serif.com/" style="fill-rule:evenodd;clip-rule:evenodd;stroke-linejoin:round;stroke-miterlimit:2;"><g><path d="M16,4c0,-2.208 -1.792,-4 -4,-4l-8,0c-2.208,0 -4,1.792 -4,4l0,5.548l4.308,0.437c-0,-0 0,-0 0.001,-0c1.053,0.032 1.727,0.925 1.707,1.709c-0.019,0.774 -0.609,1.663 -1.708,1.708c-0.749,0.031 -1.725,-0.74 -1.709,-1.708c0.013,-0.823 0.939,-1.722 1.709,-1.709c0.002,-0 -0,-0 -0,-0l-0,-0.08l-0,-1.465c-0,0 -0.974,-0.268 -1.008,-0.892c-0.028,-0.514 0.203,-1.141 1.008,-1.134c2.149,0.018 5.306,1.269 5.259,5.28c-0.014,1.184 -1.977,1.446 -1.977,-0c0,-0.807 -0.352,-3.241 -3.284,-3.37c-0.665,-0.029 -0.966,-0.525 -1.006,-0.776c-0.072,-0.453 -0.033,-4.146 -0.033,-4.146c-0,0 -0.024,-0.452 -0,0c0.01,0.193 0.093,0.928 1.041,0.938c5.78,0.056 7.485,4.301 7.562,7.354c0.031,1.197 2.02,1.418 2.02,-0c0,-1.811 -1.153,-9.274 -9.582,-9.274c-0.99,0 -1.041,0.974 -1.041,0.982c-0,0.743 -0.042,3.364 0.03,4.125c0.062,0.653 1.011,0.913 1.011,0.913l-0,1.545l-4.308,-0.437l0,2.452c0,2.208 1.792,4 4,4l8,0c2.208,0 4,-1.792 4,-4l0,-8Z"/></g></svg>